<svg xmlns="http://www.w3.org/2000/svg" xmlns:xlink="http://www.w3.org/1999/xlink" width="500" zoomAndPan="magnify" viewBox="0 0 375 374.999991" height="500" preserveAspectRatio="xMidYMid meet" version="1.0"><defs><g/><clipPath id="d080e37549"><path d="M 46.839844 41.910156 L 328.160156 41.910156 L 328.160156 333.089844 L 46.839844 333.089844 Z M 46.839844 41.910156 " clip-rule="nonzero"/></clipPath><clipPath id="0778ec8589"><path d="M 64.089844 41.910156 L 310.910156 41.910156 C 315.484375 41.910156 319.875 43.726562 323.109375 46.960938 C 326.34375 50.195312 328.160156 54.585938 328.160156 59.160156 L 328.160156 315.839844 C 328.160156 320.414062 326.34375 324.804688 323.109375 328.039062 C 319.875 331.273438 315.484375 333.089844 310.910156 333.089844 L 64.089844 333.089844 C 59.515625 333.089844 55.125 331.273438 51.890625 328.039062 C 48.65625 324.804688 46.839844 320.414062 46.839844 315.839844 L 46.839844 59.160156 C 46.839844 54.585938 48.65625 50.195312 51.890625 46.960938 C 55.125 43.726562 59.515625 41.910156 64.089844 41.910156 Z M 64.089844 41.910156 " clip-rule="nonzero"/></clipPath></defs><g clip-path="url(#d080e37549)"><g clip-path="url(#0778ec8589)"><path fill="#101010" d="M 46.839844 41.910156 L 328.160156 41.910156 L 328.160156 333.089844 L 46.839844 333.089844 Z M 46.839844 41.910156 " fill-opacity="1" fill-rule="nonzero"/></g></g><g fill="#f2f2f2" fill-opacity="1"><g transform="translate(81.644093, 281.475664)"><g><path d="M 109.09375 -32.75 C 118.78125 -32.75 127.847656 -34.773438 136.296875 -38.828125 C 144.753906 -42.878906 152.242188 -48.691406 158.765625 -56.265625 L 183.859375 -31.4375 C 175.046875 -21.039062 163.816406 -12.757812 150.171875 -6.59375 C 136.523438 -0.4375 122.484375 2.640625 108.046875 2.640625 C 94.128906 2.640625 81.140625 0.175781 69.078125 -4.75 C 57.015625 -9.6875 46.578125 -16.378906 37.765625 -24.828125 C 28.960938 -33.285156 22.050781 -43.320312 17.03125 -54.9375 C 12.019531 -66.5625 9.515625 -79.066406 9.515625 -92.453125 C 9.515625 -105.835938 12.066406 -118.382812 17.171875 -130.09375 C 22.273438 -141.800781 29.226562 -151.878906 38.03125 -160.328125 C 46.84375 -168.785156 57.28125 -175.476562 69.34375 -180.40625 C 81.40625 -185.34375 94.304688 -187.8125 108.046875 -187.8125 C 122.835938 -187.8125 137.1875 -184.6875 151.09375 -178.4375 C 165.007812 -172.1875 176.28125 -163.773438 184.90625 -153.203125 L 159.015625 -127.59375 C 152.503906 -135.6875 144.84375 -141.890625 136.03125 -146.203125 C 127.226562 -150.523438 117.898438 -152.6875 108.046875 -152.6875 C 99.765625 -152.6875 91.96875 -151.144531 84.65625 -148.0625 C 77.351562 -144.976562 71.054688 -140.75 65.765625 -135.375 C 60.484375 -130.007812 56.347656 -123.671875 53.359375 -116.359375 C 50.367188 -109.046875 48.875 -101.078125 48.875 -92.453125 C 48.875 -84.003906 50.410156 -76.125 53.484375 -68.8125 C 56.566406 -61.5 60.796875 -55.203125 66.171875 -49.921875 C 71.546875 -44.640625 77.882812 -40.457031 85.1875 -37.375 C 92.5 -34.289062 100.46875 -32.75 109.09375 -32.75 Z M 109.09375 -32.75 "/></g></g></g><path stroke-linecap="butt" transform="matrix(0.409396, 0, 0, 0.409396, 228.182157, 113.096045)" fill="none" stroke-linejoin="miter" d="M 46.604164 189.030464 C 46.604164 165.272145 51.832903 143.927824 62.299921 124.98796 C 72.795564 106.048095 87.823416 90.867579 107.383478 79.446411 L 125.197446 99.664836 C 109.425357 109.368535 97.336285 121.877433 88.930229 137.19153 C 80.571881 152.505627 76.392707 169.785272 76.392707 189.030464 C 76.392707 208.122992 80.571881 225.345388 88.930229 240.697651 C 97.336285 256.011748 109.425357 268.520646 125.197446 278.214804 L 107.383478 298.385521 C 87.823416 286.964353 72.795564 271.822003 62.299921 252.95847 C 51.832903 234.133104 46.604164 212.817407 46.604164 189.030464 Z M 46.604164 189.030464 " stroke="#ff3131" stroke-width="14.371516" stroke-opacity="1" stroke-miterlimit="4"/><g fill="#ff3131" fill-opacity="1"><g transform="translate(242.171988, 214.216876)"><g><path d="M 5.09375 -23.734375 C 5.09375 -33.460938 7.238281 -42.203125 11.53125 -49.953125 C 15.820312 -57.703125 21.96875 -63.914062 29.96875 -68.59375 L 37.265625 -60.328125 C 30.796875 -56.359375 25.847656 -51.234375 22.421875 -44.953125 C 19.003906 -38.679688 17.296875 -31.609375 17.296875 -23.734375 C 17.296875 -15.910156 19.003906 -8.859375 22.421875 -2.578125 C 25.847656 3.691406 30.796875 8.8125 37.265625 12.78125 L 29.96875 21.03125 C 21.96875 16.363281 15.820312 10.171875 11.53125 2.453125 C 7.238281 -5.265625 5.09375 -13.992188 5.09375 -23.734375 Z M 5.09375 -23.734375 "/></g></g></g><g fill="#f2f2f2" fill-opacity="1"><g transform="translate(273.07589, 199.357152)"><g><path d="M 0 0 Z M 6.109375 -24.5625 C 7.160156 -24.5625 8.054688 -24.191406 8.796875 -23.453125 C 9.535156 -22.710938 9.90625 -21.816406 9.90625 -20.765625 C 9.90625 -19.753906 9.535156 -18.875 8.796875 -18.125 C 8.054688 -17.382812 7.160156 -17.015625 6.109375 -17.015625 C 5.097656 -17.015625 4.21875 -17.382812 3.46875 -18.125 C 2.726562 -18.875 2.359375 -19.753906 2.359375 -20.765625 C 2.359375 -21.816406 2.726562 -22.710938 3.46875 -23.453125 C 4.21875 -24.191406 5.097656 -24.5625 6.109375 -24.5625 Z M 2.8125 -5.1875 L 9.390625 -5.1875 L 4.390625 6.984375 L -0.375 6.984375 Z M 2.8125 -5.1875 "/></g></g></g></svg>